<?xml version="1.0" encoding="UTF-8" standalone="no"?>
<svg
   xmlns:dc="http://purl.org/dc/elements/1.1/"
   xmlns:cc="http://creativecommons.org/ns#"
   xmlns:rdf="http://www.w3.org/1999/02/22-rdf-syntax-ns#"
   xmlns:svg="http://www.w3.org/2000/svg"
   xmlns="http://www.w3.org/2000/svg"
   xmlns:sodipodi="http://sodipodi.sourceforge.net/DTD/sodipodi-0.dtd"
   xmlns:inkscape="http://www.inkscape.org/namespaces/inkscape"
   width="210mm"
   height="297mm"
   viewBox="0 0 210 297"
   version="1.1"
   id="svg8"
   inkscape:version="1.0.2-2 (e86c870879, 2021-01-15)"
   sodipodi:docname="Avatar SVG.svg"
   inkscape:export-filename="C:\Users\Felipe Lindo\Desktop\Avatar.png"
   inkscape:export-xdpi="96"
   inkscape:export-ydpi="96">
  <defs
     id="defs2" />
  <sodipodi:namedview
     id="base"
     pagecolor="#ffffff"
     bordercolor="#666666"
     borderopacity="1.0"
     inkscape:pageopacity="0.0"
     inkscape:pageshadow="2"
     inkscape:zoom="0.24748737"
     inkscape:cx="-255.05586"
     inkscape:cy="560"
     inkscape:document-units="mm"
     inkscape:current-layer="layer1"
     inkscape:document-rotation="0"
     showgrid="false"
     inkscape:snap-global="false"
     inkscape:window-width="1920"
     inkscape:window-height="1017"
     inkscape:window-x="-8"
     inkscape:window-y="-8"
     inkscape:window-maximized="1" />
  <metadata
     id="metadata5">
    <rdf:RDF>
      <cc:Work
         rdf:about="">
        <dc:format>image/svg+xml</dc:format>
        <dc:type
           rdf:resource="http://purl.org/dc/dcmitype/StillImage" />
        <dc:title></dc:title>
      </cc:Work>
    </rdf:RDF>
  </metadata>
  <g
     inkscape:label="Layer 1"
     inkscape:groupmode="layer"
     id="layer1">
    <path
       id="path958"
       style="fill:#1a1a1a;fill-opacity:1;stroke-width:0.289998"
       d="m -67.015617,-77.140722 a 37.496596,37.496596 0 0 0 -18.589303,4.997366 37.496596,37.496596 0 0 0 -19.35794,0.01359 37.496596,37.496596 0 0 0 -16.77175,9.66735 37.496596,37.496596 0 0 0 -18.69579,5.023429 37.496596,37.496596 0 0 0 -13.69845,13.679745 37.496596,37.496596 0 0 0 -16.75815,9.690575 37.496596,37.496596 0 0 0 -9.69112,16.75871 37.496596,37.496596 0 0 0 -13.67862,13.6978732 37.496596,37.496596 0 0 0 -5.02344,18.6952368 37.496596,37.496596 0 0 0 -9.66792,16.771739 37.496596,37.496596 0 0 0 -0.013,19.358494 37.496596,37.496596 0 0 0 -4.99736,18.702602 37.496596,37.496596 0 0 0 4.99736,18.702603 37.496596,37.496596 0 0 0 0.013,19.358499 37.496596,37.496596 0 0 0 9.66792,16.77175 37.496596,37.496596 0 0 0 5.02344,18.69578 37.496596,37.496596 0 0 0 13.67862,13.69789 37.496596,37.496596 0 0 0 9.69112,16.75868 37.496596,37.496596 0 0 0 16.75873,9.6906 37.496596,37.496596 0 0 0 13.69787,13.67918 37.496596,37.496596 0 0 0 18.69579,5.02343 37.496596,37.496596 0 0 0 16.77175,9.66789 37.496596,37.496596 0 0 0 19.358491,0.013 37.496596,37.496596 0 0 0 18.702606,4.9979 37.496596,37.496596 0 0 0 18.702025,-4.99735 37.496596,37.496596 0 0 0 19.359074,-0.0136 37.496596,37.496596 0 0 0 16.771741,-9.66733 37.496596,37.496596 0 0 0 18.6957914,-5.02399 37.496596,37.496596 0 0 0 13.6984596,-13.67918 37.496596,37.496596 0 0 0 16.757566,-9.6906 37.496596,37.496596 0 0 0 9.691708,-16.75868 37.496596,37.496596 0 0 0 13.678614,-13.69789 37.496596,37.496596 0 0 0 5.023421,-18.69523 37.496596,37.496596 0 0 0 9.667918,-16.7723 37.496596,37.496596 0 0 0 0.01303,-19.358499 A 37.496596,37.496596 0 0 0 80.154956,69.915989 37.496596,37.496596 0 0 0 75.157588,51.213387 37.496596,37.496596 0 0 0 75.144555,31.854893 37.496596,37.496596 0 0 0 65.476637,15.083154 37.496596,37.496596 0 0 0 60.453216,-3.6120828 37.496596,37.496596 0 0 0 46.774033,-17.310522 37.496596,37.496596 0 0 0 37.082894,-34.068666 37.496596,37.496596 0 0 0 20.324747,-43.759811 37.496596,37.496596 0 0 0 6.6268684,-57.438986 a 37.496596,37.496596 0 0 0 -18.6957914,-5.023429 37.496596,37.496596 0 0 0 -16.771741,-9.66735 37.496596,37.496596 0 0 0 -19.358494,-0.01359 37.496596,37.496596 0 0 0 -18.702605,-4.997366 37.496596,37.496596 0 0 0 -0.113854,-10e-7 z" />
    <ellipse
       style="fill:#1a1a1a;fill-opacity:1;stroke-width:0.434246"
       id="ellipse849"
       cx="-67.886459"
       cy="298.80731"
       rx="132.87238"
       ry="137.37656" />
    <ellipse
       style="fill:#ffb380;fill-opacity:1;stroke-width:0.351452"
       id="path845"
       cx="-67.886459"
       cy="266.20041"
       rx="107.53874"
       ry="111.18413" />
    <rect
       style="fill:#e9c6af;fill-rule:evenodd;stroke-width:0.264583"
       id="rect843"
       width="195.79167"
       height="331.10712"
       x="-164.79761"
       y="-25.702381"
       ry="107.34524" />
    <rect
       style="fill:#e9c6af;fill-opacity:1;stroke-width:0.285338"
       id="rect851"
       width="252.40659"
       height="55.59206"
       x="-193.10507"
       y="72.499252"
       ry="27.79603" />
    <circle
       style="fill:#1a1a1a;fill-opacity:1;stroke-width:0.201587"
       id="path965"
       cx="22.450659"
       cy="11.759864"
       r="34.210499" />
    <circle
       style="fill:#1a1a1a;fill-opacity:1;stroke-width:0.201587"
       id="circle967"
       cx="-14.967074"
       cy="-5.345386"
       r="34.210499" />
    <circle
       style="fill:#1a1a1a;fill-opacity:1;stroke-width:0.201587"
       id="circle969"
       cx="-70.559135"
       cy="-19.243401"
       r="34.210499" />
    <circle
       style="fill:#1a1a1a;fill-opacity:1;stroke-width:0.201587"
       id="circle971"
       cx="-124.01304"
       cy="-4.2763071"
       r="34.210499" />
    <circle
       style="fill:#1a1a1a;fill-opacity:1;stroke-width:0.201587"
       id="circle973"
       cx="-153.94722"
       cy="9.6217098"
       r="34.210499" />
    <g
       id="g997"
       transform="translate(-3.8261547)">
      <g
         id="g985">
        <circle
           style="fill:#1a1a1a;fill-opacity:1;stroke-width:0.264583"
           id="path975"
           cx="-115.46044"
           cy="100.49335"
           r="17.105249" />
        <rect
           style="fill:#1a1a1a;fill-opacity:1;stroke-width:0.264583"
           id="rect979"
           width="44.901279"
           height="12.828938"
           x="-137.91109"
           y="60.93745"
           ry="6.4144688" />
      </g>
      <g
         id="g989">
        <circle
           style="fill:#1a1a1a;fill-opacity:1;stroke-width:0.264583"
           id="circle977"
           cx="-10.690787"
           cy="100.49335"
           r="17.105249" />
        <rect
           style="fill:#1a1a1a;fill-opacity:1;stroke-width:0.264583"
           id="rect981"
           width="44.901279"
           height="12.828938"
           x="-33.141426"
           y="60.93745"
           ry="6.4144688" />
      </g>
    </g>
    <path
       style="fill:#ffffff;fill-opacity:1;stroke-width:0.264583"
       id="path1001"
       sodipodi:type="arc"
       sodipodi:cx="-66.901772"
       sodipodi:cy="136.842"
       sodipodi:rx="56.66114"
       sodipodi:ry="56.66114"
       sodipodi:start="0"
       sodipodi:end="3.1415927"
       sodipodi:arc-type="slice"
       d="m -10.240631,136.842 a 56.66114,56.66114 0 0 1 -28.330571,49.06998 56.66114,56.66114 0 0 1 -56.661141,0 56.66114,56.66114 0 0 1 -28.330567,-49.06998 h 56.661138 z" />
    <g
       id="g1039"
       transform="translate(-1.1534738,-2.4968522)">
      <g
         id="g1025"
         transform="matrix(0.48770978,0,0,0.48770978,99.227628,54.457934)">
        <rect
           style="fill:#ffb380;fill-opacity:1;stroke-width:0.264583"
           id="rect1019"
           width="24.588787"
           height="65.213776"
           x="-292.72208"
           y="461.76544"
           ry="18.708866"
           transform="rotate(50.394586)" />
        <rect
           style="fill:#ffb380;fill-opacity:1;stroke-width:0.264583"
           id="rect1021"
           width="24.588787"
           height="65.213776"
           x="420.8439"
           y="-400.6217"
           ry="18.708866"
           transform="matrix(-0.63749679,0.77045301,0.77045301,0.63749679,0,0)" />
      </g>
      <g
         id="g1031"
         transform="matrix(0.48770978,0,0,0.48770978,315.18141,54.457934)">
        <rect
           style="fill:#ffb380;fill-opacity:1;stroke-width:0.264583"
           id="rect1027"
           width="24.588787"
           height="65.213776"
           x="-292.72208"
           y="461.76544"
           ry="18.708866"
           transform="rotate(50.394586)" />
        <rect
           style="fill:#ffb380;fill-opacity:1;stroke-width:0.264583"
           id="rect1029"
           width="24.588787"
           height="65.213776"
           x="420.8439"
           y="-400.6217"
           ry="18.708866"
           transform="matrix(-0.63749679,0.77045301,0.77045301,0.63749679,0,0)" />
      </g>
    </g>
  </g>
</svg>
